<svg width="11" height="45" viewBox="0 0 11 45" fill="none" xmlns="http://www.w3.org/2000/svg">
<path d="M10.6006 0.535156L9.76639 31.2085H1.93763L1.08203 0.535156H10.6006Z" fill="white"/>
<path d="M2.21244 43.401C3.22491 44.3992 4.43701 44.8983 5.84875 44.8983C6.76139 44.8983 7.60273 44.6701 8.37278 44.2138C9.14282 43.7432 9.76313 43.1229 10.2337 42.3529C10.7185 41.5686 10.9681 40.7058 10.9824 39.7647C10.9681 38.3672 10.4476 37.1693 9.42089 36.1711C8.39417 35.1729 7.20345 34.6738 5.84875 34.6738C4.43701 34.6738 3.22491 35.1729 2.21244 36.1711C1.19998 37.1693 0.700881 38.3672 0.715141 39.7647C0.700881 41.1764 1.19998 42.3885 2.21244 43.401Z" fill="#B8E560"/>
</svg>
